<svg xmlns="http://www.w3.org/2000/svg" version="1.1" xmlns:xlink="http://www.w3.org/1999/xlink" xmlns:svgjs="http://svgjs.dev/svgjs" width="1000" height="1000" viewBox="0 0 1000 1000"><rect width="1000" height="1000" fill="#000000"></rect><g transform="matrix(0.7,0,0,0.7,150.0000000000001,106.25)"><svg viewBox="0 0 320 360" data-background-color="#8dbdff" preserveAspectRatio="xMidYMid meet" height="1125" width="1000" xmlns="http://www.w3.org/2000/svg" xmlns:xlink="http://www.w3.org/1999/xlink"><g id="tight-bounds" transform="matrix(1,0,0,1,-5.684341886080802e-14,0)"><svg viewBox="0 0 320 360" height="360" width="320"><g><svg></svg></g><g><svg viewBox="0 0 320 360" height="360" width="320"><g><path xmlns="http://www.w3.org/2000/svg" d="M85.508 32.884c0-1.117 0.558-2.233 1.675-2.233 1.117 0 2.233 0.558 2.234 2.233 0.558 0 1.675 0 2.233-0.558 2.233 0 4.467-0.558 6.141 0 1.675 0.558 2.792 0.558 4.467 1.117 1.675 0.558 2.792 0 3.908-0.559 2.233-0.558 3.908-1.675 6.141-2.233 1.117-0.558 1.675-0.558 2.792-0.558 1.117-0.558 2.233-0.558 3.908-1.117 2.792-0.558 5.583-1.117 7.817-2.233 2.233-1.117 4.467-1.117 6.699-1.675 1.117 0 1.675-0.558 2.792-1.117 0.558 0 0.558-0.558 1.116-1.116 1.117-0.558 1.675-1.117 2.792-0.559 0.558 0.558 1.675 0.558 2.233 0h0.559c3.35 0 6.7-0.558 10.608 0 0.558 0 1.117 0 1.116 0 1.675-1.117 3.908-1.117 6.142-1.116 0.558 0 1.675 0 2.233 0h0.558c2.233 0 4.467 0 6.142 0.558 1.675 0 2.792 0.558 4.466 1.117 1.675 0 2.792 0 4.467 0.558 1.117 0 2.233 0 3.35 0 0.558 0 1.117 0 1.116 0 2.233 0.558 4.467 0.558 6.7 0.558 1.675 0.558 3.35 1.117 5.583 1.117 0.558 0 1.117 0 1.675 0 0.558 0 1.117 0.558 1.675 0.558l0.558 0.559c2.233 0 3.908 1.117 6.142 1.116 0.558 0 1.675 0 2.233 0.559 1.675 1.117 3.908 1.675 6.141 1.675 1.117 0 1.675 0.558 2.234 1.116 1.675 0.558 2.792 1.117 4.466 1.675 1.117 0.558 2.233 0 3.35 0.558 1.675 0.558 3.908 1.117 5.583 2.792 1.117 1.117 2.233 1.117 3.908 2.233 0.558 0 1.117 0.558 1.675 1.117 1.675 1.117 3.35 2.233 5.025 2.791 0.558 0 1.117 0.558 1.675 0.559 1.675 1.117 3.35 2.792 5.583 3.908 1.117 0.558 1.675 1.117 2.792 1.675h0.558c1.675 1.675 3.908 2.792 5.583 4.466 1.675 1.675 2.792 2.792 5.025 3.909 0 0 0 0 0 0.558 0.558 1.117 1.117 1.675 2.233 2.233 1.117 0.558 1.675 1.117 2.234 1.675 1.675 1.117 3.35 2.233 4.466 3.35 0.558 0.558 1.117 1.117 2.233 2.233 0.558 0.558 1.117 1.117 1.675 1.117 2.233 0.558 3.35 2.233 5.025 3.908 1.117 1.117 2.792 2.792 3.908 3.908 0.558 0.558 1.117 1.675 1.675 2.792 1.117 3.35 2.792 6.7 4.467 9.491 0 0 0 0.558 0.558 1.117v0.558c1.117 1.117 1.675 2.792 2.792 3.908 0.558 0.558 0.558 1.117 1.116 1.675 1.117 1.675 1.675 3.908 2.792 5.583 1.675 2.792 2.792 5.583 3.908 8.375v0.558c0.558 1.117 1.117 2.233 1.675 3.908 0 1.117 1.117 2.233 1.675 3.909 0.558 2.792 2.233 5.583 2.791 8.933 0 0.558 0.558 1.117 0.559 2.233 0.558 1.675 1.117 3.35 1.675 5.025 0 0.558 0.558 1.117 1.116 1.675 1.117 1.117 1.117 2.233 1.117 3.35-0.558 2.233 0 4.467 0.558 6.699 0 0.558 0 1.117 0 2.234 0.558 2.233 1.117 5.025 1.117 7.258 0 0.558 0 1.675 0 2.233 0 1.675 0.558 3.35 1.675 5.025 0 0.558 0.558 0.558 0.558 0.558 0.558 0.558 1.117 1.675 1.675 2.233 0.558 0.558 0.558 0.558 1.117 1.117 1.117 1.117 1.675 2.233 1.675 3.908 0 0.558-0.558 1.675-0.559 2.233 0 0.558 0 1.675 0.559 2.234 0.558 0.558 0.558 1.117 0.558 1.675 0 0.558-0.558 1.117-1.117 1.116v0c-0.558 1.675-2.792 2.233-3.35 3.908-0.558 2.233-1.117 4.467-1.674 6.7-0.558 1.675-0.558 2.792-0.559 4.467 0 1.675-0.558 2.792-0.558 4.466-0.558 2.233-1.117 4.467-1.675 6.7 0 1.117-0.558 2.233-0.558 3.35 0.558 0.558 1.117 1.117 1.675 1.116 1.117 1.117 2.233 2.233 3.349 3.35 0.558 0.558 0.558 1.117 0 1.117-0.558 0.558-1.117 0.558-1.674 0.558-0.558-0.558-1.675-1.117-2.234-1.116-0.558-0.558-1.675-1.117-2.791-0.559 0 1.117-0.558 2.233-0.559 2.792-0.558 1.117-1.117 2.792-1.116 3.908-0.558 2.233-1.675 3.908-2.233 6.142-1.117 2.792-2.233 5.025-3.35 7.258-0.558 1.117-1.117 2.233-1.675 3.35v0c0 1.675-1.675 3.35-2.234 5.024-1.117 2.233-2.233 4.467-3.349 7.258-0.558 1.117-1.117 2.233-1.675 2.792-1.117 2.792-2.233 5.025-3.909 7.258-1.117 1.675-2.233 2.792-3.349 3.35-1.117 1.117-2.233 2.233-3.35 3.35-0.558 0.558-1.117 1.117-1.675 1.675-0.558 0.558-0.558 0.558-1.117 1.116-1.117 1.675-2.792 2.792-3.908 4.467-1.117 1.117-1.675 2.233-3.35 3.35-1.117 1.117-2.233 2.792-3.908 3.35-0.558 0.558-1.117 1.675-1.675 2.233-0.558 0.558-1.117 1.675-1.675 2.233 0 1.117 0.558 2.233 0.558 2.792 0 1.675-1.675 2.233-2.791 1.116-1.675-1.117-1.675-1.117-3.35 0-1.675 1.117-3.35 2.792-5.583 3.35-0.558 0-0.558 0.558-1.117 0.559-1.117 0.558-1.675 1.675-2.792 2.233-1.117 1.117-2.792 1.675-3.908 2.791-0.558 0.558-1.117 0.558-1.675 1.117-1.675 1.117-3.35 1.675-5.024 3.35-0.558 0.558-1.117 0.558-1.675 1.117 0 0.558 0 0.558 0 1.116 0 1.117-1.117 2.233-2.792 1.675-1.675-0.558-2.792 0-4.466 0-1.675 0.558-3.35 1.675-5.025 2.233-0.558 0-1.117 0.558-1.675 1.117-1.675 1.117-3.35 1.675-5.025 2.233-1.117 0-2.233 1.117-3.35 1.117-0.558 0-1.117 0.558-1.675 0.558h-0.558c-2.233 1.675-4.467 2.792-6.7 4.467-0.558 0-0.558 0.558-1.117 1.116-0.558 1.117-1.117 1.675-2.233 1.675-2.792 0-3.908 2.233-3.35 4.467 0 0.558 0.558 1.117 0.559 1.675 0.558 1.117 0 2.233-0.559 2.791-0.558 0.558-2.233 0.558-2.791-0.558-1.117-1.117-1.675-2.233-2.234-3.908-0.558-1.117-1.675-2.233-2.791-2.792-1.117-0.558-2.233-0.558-3.35 0-0.558 0-0.558 0.558-1.117 0.558-1.117 1.117-2.792 1.675-4.466 1.117-0.558 0-1.675 0-1.675 0.558-0.558 0.558-0.558 1.675 0 2.234 1.117 1.117 0.558 2.233 0.558 3.908 0 2.233-1.675 3.35-3.908 2.233-0.558-0.558-1.117-0.558-1.675-1.117-0.558 0-0.558-0.558-0.558-1.116-0.558-0.558-0.558-1.675-1.117-2.792-1.117 0.558-2.233 0.558-3.35 1.117-0.558 0-1.117 0.558-1.675 0.558-1.675 0-2.233 0-2.791-1.675-0.558-1.675-1.675-1.675-2.792-2.233-2.233-0.558-5.025-0.558-7.258-1.675h-0.558c-2.233-1.675-4.467-1.675-7.258-1.675-1.675 0-3.35 0.558-5.025 0.558-1.675 0-2.792 0.558-3.908 1.675-0.558 0.558-1.117 1.117-1.675 1.117-0.558-0.558-0.558-1.117-1.117-1.675v-0.558c0-0.558-0.558-1.117-1.116-0.559-1.117 0.558-2.233-0.558-3.35-1.116-0.558-0.558-1.675-1.675-1.675-2.792-0.558-0.558-1.117-1.117-1.675-1.116-1.117 0-2.792-0.558-3.908-0.559-0.558 0-1.117 0-1.117-0.558-0.558-0.558-1.117-0.558-2.233-0.558-0.558 0-0.558-0.558-1.117-0.559 1.117 1.117 1.675 2.233 2.233 3.35 0 0.558 0.558 0.558 0.559 1.117 0.558 1.117 0 1.675-1.675 1.675-1.117 0-1.117 0-1.675 0.558 0 1.117 0 1.675 0 2.792 0 0.558 0 1.117-1.117 1.675 0 0-0.558 0-0.558 0.558-0.558 0.558-0.558 1.117 0 1.675 1.675 1.117 2.792 1.675 4.466 2.233 1.675 0 1.675 1.117 2.234 2.233 0.558 1.117 0 1.675-0.559 2.792-1.117 1.117-2.233 2.233-3.35 3.35-1.675 0.558-2.792 2.233-4.466 2.233-1.117 0-2.233-0.558-2.792-1.675-0.558-2.792-0.558-5.025 0.559-7.816 0-0.558 0.558-1.117 0-1.675-5.025 0-5.025-1.117-5.025-1.675 0-1.117 0.558-1.675 0.558-2.792 0.558-1.117 0-1.675-1.675-2.233-0.558 0-1.117 0-1.675 0-0.558 0-0.558-0.558-1.675-0.558 1.117-0.558 1.675-0.558 2.792-1.117-0.558-2.233-1.117-3.908-2.792-5.025-0.558-0.558-1.117-1.117-1.116-2.233 0-1.675-1.117-2.792-1.675-3.908-1.117-1.675-3.35-2.233-5.025-2.233-1.675-0.558-2.792-0.558-4.467-1.117-1.675-0.558-3.35-2.233-5.024-2.792-0.558-0.558-1.117-1.117-2.234-1.674-2.233-1.117-3.908-2.792-5.583-4.467-1.117-0.558-1.675-1.675-2.791-2.233-1.117-1.117-1.675-2.233-2.792-2.792-1.117-1.117-2.233-2.233-3.908-3.35-1.675-1.117-2.792-2.792-4.467-4.466-1.117-1.675-2.792-2.792-4.466-3.908-0.558 0-1.117 0-1.675 0-0.558 0-1.117 0.558-1.675 0.558-1.675 0.558-2.792 1.675-4.467 2.233 0.558-0.558 0.558-0.558 0-1.675-0.558-0.558-1.117-1.117-1.674-1.116-1.117 0-2.233 0-3.35 0-2.233 0-4.467 0.558-6.7 0.558-1.675 0-3.908 0.558-5.583 1.117 0.558 1.117 0.558 1.675 1.116 2.791-1.117 0.558-2.233 0.558-3.35 0.558-0.558 0-1.675 0.558-2.233 1.117-0.558 0-0.558 0.558-1.116 0-1.117-0.558-2.233 0-3.35 0.558h-0.559c0 0 0-0.558 0.559-0.558 0.558-0.558 1.117-1.117 1.675-1.675 0.558-0.558 1.117-0.558 2.233-1.117-0.558-0.558-0.558-1.117-0.558-1.116-0.558-0.558-1.117-0.558-1.675 0-0.558 0.558-1.117 1.117-1.675 1.675-0.558 0.558-1.117 0.558-1.675 0-0.558-0.558-0.558-1.117 0-1.675 0-0.558 0.558-1.117 1.116-1.675 0.558-0.558 0.558-1.117 1.117-1.675-1.117-1.117-1.675-2.233-2.792-2.792-1.675-1.117-3.35-2.792-4.466-4.466-1.117-2.233-2.792-3.908-5.025-5.025-0.558-0.558-1.117-1.117-1.675-1.675-0.558-0.558-0.558-0.558-1.116-1.117-1.675 0.558-2.792 1.675-4.467 2.234-0.558 0-0.558 0.558-1.117 1.116-0.558 1.117-1.675 1.117-2.791 1.117-0.558 0-1.117-0.558-0.558-1.117 0.558-1.117 1.117-2.233 2.791-1.675 0 0 0.558 0 0.558-0.558 1.117-1.117 2.233-2.792 3.909-3.908-0.558-1.675-1.675-2.792-2.234-3.908-0.558-0.558-0.558-1.117-0.558-2.234 0-0.558 0-0.558-0.558-1.116 0 0-0.558 0-1.117 0.558-0.558 0.558-1.675 1.117-2.791 0 0-0.558 0-1.117 0.558-1.675l0.558-0.558c1.675-0.558 1.675-2.233 1.675-3.908v-0.559c-0.558-1.117-0.558-1.675 0.558-2.791 1.675-1.117 3.35-3.35 3.909-5.025 0.558-1.117 1.675-1.675 2.791-2.792 1.117-1.117 2.233-2.233 2.792-3.908h0.558c2.233 0.558 2.792-1.117 3.908-2.791 0-0.558 0-1.117 0.559-1.117 1.117-1.117 1.117-2.233 0.558-3.908 0-0.558-0.558-1.675-0.558-2.233 0-0.558 0-0.558-0.559-1.117-1.675-1.117-1.675-2.233 0-3.35 1.117-0.558 1.117-1.675 1.675-2.233 0.558-1.117 0.558-2.233 0.559-3.908-0.558-1.675-0.558-3.908-1.117-5.583-0.558-2.233-1.117-5.025-1.675-7.259 0-0.558 0-0.558 0-1.116 0-1.675 0-2.792-0.558-4.467-0.558-0.558-0.558-1.675-0.559-2.233-0.558-1.675-1.117-2.792-2.791-3.35-1.675-1.117-3.908-1.675-5.583-2.791-0.558-0.558-1.117 0-1.675 0.558-0.558 1.117-1.675 2.233-2.234 3.35-0.558 0.558-1.117 1.675-1.675 2.791-1.117 1.117-3.35 2.233-5.024 0.559-0.558-1.117-1.117-1.675 0-2.792 1.117-1.675 2.233-3.35 3.908-4.466 0.558-0.558 1.117-1.675 1.675-2.234 0.558-1.117 0.558-2.233 0.558-3.35-0.558-2.233-1.117-4.467-1.117-7.258 0-2.792 0-5.025 0.559-7.816 0.558-1.117 0.558-2.792 1.116-3.908 0-0.558 0.558-1.675 1.117-2.233 1.117-1.117 2.233-2.233 2.792-3.909 0.558-1.675 1.675-3.35 1.675-5.024 0-0.558 0.558-1.117 0.558-1.675 0-0.558 0.558-1.675 0.558-2.234-0.558-1.675 0-2.792 0.558-3.908 0.558-1.117 1.117-2.792 1.675-3.908 1.117-2.233 1.117-5.025 3.35-7.258 0.558-1.117 1.117-2.233 1.675-3.35 0.558-2.233 1.675-3.908 2.792-5.583 0.558-0.558 0.558-0.558 0.558-1.117 0.558-1.675 1.675-3.35 2.792-5.025 1.117-1.675 1.117-3.35 1.675-5.024 0-0.558 0-1.117 0.558-1.675 1.675-1.675 1.117-3.908 0.558-6.142-1.117-2.792-1.675-5.583-1.116-8.374 0-0.558 0-1.117 0.558-1.117 0.558-1.117 0.558-1.675 1.117-2.792v-0.558c1.117-1.117 2.233-2.792 3.908-3.35 2.233-1.117 4.467-1.675 7.258-2.233 2.233 0 4.467-1.117 6.141-3.35 0-0.558 0.558-0.558 1.117-1.117l0.558-0.558c0.558-1.117 1.117-1.675 1.675-2.233 1.117-1.117 2.233-2.792 3.35-3.908 1.117-1.117 2.233-2.792 3.908-4.467l0.559-0.558c1.117-1.117 2.233-2.233 3.349-2.792 1.117-1.117 2.233-2.233 3.35-3.35 1.117-1.117 1.675-2.233 2.792-3.35 1.117-0.558 2.233-1.675 3.35-2.791 1.117-1.117 2.233-2.233 2.791-2.792 1.117-1.117 2.792-2.233 3.909-2.791 1.117-0.558 2.233-1.117 2.791-2.792 0.558-1.675 1.117-2.792 1.675-4.466 0-1.117 0.558-2.233 1.117-3.35 0.558 0 1.117 0 2.233-0.558-0.558-0.558-1.117-0.558-1.117-1.117 0-0.558 0.558-1.117 0.559-1.117 0-0.558 0.558-1.117 0.558-1.675 0 0 0.558 0 0.558-0.558 0 0 0.558 0 0.559-0.558-1.117 0.558-1.675 0-2.234-0.559 0.558 0.558 1.117 0.558 2.234 1.117 0 0 0.558 0 0.558-0.558 0-0.558 0-1.117 0-1.117 0 0-0.558 0-1.117 0-0.558 0-1.117 0.558-1.675 0.558zM182.097 295.292c0-0.558-0.558-0.558-0.559-1.117-0.558-1.117 0-1.675 0.559-2.233 0.558-0.558 1.117-0.558 2.233-0.558 1.117 0.558 1.675 1.117 1.675 2.233 0 0.558 0 1.675 0 2.233 0.558 2.233 0.558 2.233 2.791 2.233 1.117 0 2.233 0 3.35 0 2.233-0.558 4.467-1.675 6.7-2.233 2.233-0.558 4.467-1.117 6.7-1.675 0.558 0 1.117 0 2.233 0 2.233 0.558 3.908 0 5.583-1.117 0.558-0.558 1.675-0.558 2.233-1.116 1.117-0.558 2.233-0.558 3.35-1.117 2.792-1.675 5.583-2.792 7.817-4.466 1.675-1.117 3.35-2.233 5.024-3.35 1.675-1.117 3.35-2.233 5.025-3.35 1.117-0.558 2.792-1.675 3.908-2.792 2.233-1.675 3.908-3.35 6.142-4.466 1.117-0.558 1.675-1.117 2.233-1.675 1.117-0.558 1.675-1.675 2.792-2.233 0.558-0.558 1.117-1.117 2.233-1.675 0.558-0.558 0.558-0.558 0.558-1.117 1.675-1.117 3.35-3.35 4.467-5.025 1.117-1.117 2.233-2.233 3.35-3.908 1.675-1.675 2.792-3.908 4.466-6.141 1.117-1.117 2.233-2.792 2.792-3.909 1.117-2.233 2.233-4.467 3.908-6.141v-0.558c1.117-2.233 2.233-4.467 3.35-6.7 1.675-2.792 2.792-6.141 4.466-8.933 0.558-1.117 1.117-2.233 1.117-3.35 1.117-2.233 1.675-4.467 2.233-6.7 0-0.558 0-0.558 0.559-1.116 1.675-3.35 2.792-6.7 3.349-10.608 0.558-2.233 1.117-4.467 1.675-6.7 1.117-3.35 1.117-6.141 1.675-9.491 0.558-2.233 0.558-5.025 0.559-7.258 0.558-3.35 0.558-7.258 0-10.608 0-2.792-0.558-6.141-0.559-8.933 0-2.792-0.558-5.025-1.116-7.817-0.558-2.792-1.117-5.025-1.675-7.816-1.117-2.233-1.675-4.467-2.234-7.258-0.558-2.233-1.675-3.908-1.674-6.142 0-1.675-0.558-3.35-2.234-3.908-1.675-0.558-2.792-1.117-4.466-2.233-3.35-2.233-5.025-5.025-4.467-8.375 0-1.675 0.558-3.908 1.117-5.583 0.558-1.675 1.117-3.35 0-4.467-0.558-1.675-1.675-2.792-2.233-3.908-1.117-1.675-1.675-2.792-2.792-3.908-1.117-2.233-2.233-4.467-3.908-6.141-2.233-2.792-3.908-5.583-6.7-7.817l-0.558-0.558c-1.675-2.233-3.35-4.467-5.583-6.142-1.117-1.117-2.233-2.233-3.35-2.791-0.558-0.558-1.117-1.117-2.233-1.675-1.675-1.117-3.35-1.675-4.467-2.792-1.675-1.675-3.908-2.792-5.583-3.908 0 0-0.558 0-0.558-0.558-2.233-1.117-3.908-1.675-6.142-2.792-2.233-1.117-4.467-1.675-6.7-1.675-0.558 0-0.558 0-1.116 0-0.558-0.558-1.675-0.558-2.233-0.558-0.558 0-0.558 0-1.117 0-1.117-0.558-2.792 0-3.908 0-2.233 0.558-4.467 0.558-6.7-0.558-2.792-1.117-5.025-2.233-7.258-3.35-1.675-1.117-2.792-2.233-4.467-3.35-3.35-2.792-6.7-6.141-10.608-8.933 0.558-2.792-0.558-3.35-2.791-3.35-1.117 0-2.233 0.558-3.35 1.117-0.558 0.558-0.558 0.558-1.117 1.116-1.675 1.117-2.792 2.792-4.466 3.909-2.792 1.675-3.908 1.117-6.142 0-0.558-0.558-1.117-1.117-1.675-1.675-1.117-1.117-2.233-2.792-2.791-3.909-1.117-2.233-3.35-2.233-5.583-2.233-1.117 0-2.792 0.558-3.908 0.558-2.233 0-4.467 1.117-5.584 2.792-1.117 1.675-2.233 3.35-3.908 5.025-0.558 0.558-1.675 1.117-2.233 2.233-1.117 1.117-2.233 1.117-3.35 0-0.558-0.558-1.117-0.558-1.675-1.117-0.558 0.558-1.117 1.117-1.117 1.675-0.558 1.117-1.117 2.233-1.674 3.909-0.558 1.675-1.675 3.35-2.792 4.466-0.558 0.558-0.558 0.558-1.117 1.117-0.558 1.117-2.233 1.675-3.35 1.675-1.117 1.117-2.233 2.792-2.791 3.908-0.558 1.117-1.117 2.233-1.675 3.908-0.558 0.558-0.558 1.675-1.117 2.233-0.558 1.117-0.558 1.675-0.558 2.792 0.558 1.675-0.558 2.233-2.233 2.791-1.117 0-1.117 0-1.675 1.117 0 1.675 0.558 2.792 1.116 4.467 0.558 0.558 1.117 1.675 1.117 2.233 0 1.117 0.558 1.675 1.675 2.233 0.558 0.558 1.117 1.117 1.675 1.117 0.558 0 0.558 0.558 1.117 0.558 0.558 0.558 1.117 0 1.116-0.558 0.558-1.675 1.117-3.35 1.117-5.025 0.558-2.233 0.558-3.908 1.116-6.142 0.558-1.117 1.117-1.675 1.675-2.233 0 0 0.558 0 1.117 0v0.559c-0.558 2.792-1.675 6.141-2.233 8.933-0.558 1.117-0.558 2.233-1.117 3.349 0 0.558-0.558 1.117-1.116 1.117-1.117 0.558-2.233 1.117-3.35 1.117-0.558 0-1.117 0-1.675 0-1.117-0.558-2.233-1.675-3.35-2.234-0.558-0.558-1.117-1.117-1.675-1.674-0.558-1.117-1.117-2.233-1.675-3.35-0.558-1.117-1.117-1.675-2.233-2.234-0.558-0.558-1.117-0.558-1.675-1.116-1.117-1.117-2.233-1.675-3.908-1.675-0.558 0-1.675 0-2.234 0-0.558 0-1.675 0.558-2.233 1.116-1.117 0.558-1.675 0.558-2.791 0-2.792-1.117-5.583-0.558-8.375 0.559-1.117 0.558-2.233 1.117-3.35 1.116-2.792 0-5.025 0-7.816 0-2.792 0-5.025-0.558-7.817-1.116-1.117 0-2.233 0-3.35 0-2.233 0.558-2.792 2.233-2.233 4.466 0.558 2.233 1.117 5.025 1.117 7.258 0 1.675 0 3.35 0 5.025 0 1.117 0 1.675 0 2.792 0 1.675-0.558 3.35-0.559 5.025-0.558 3.35-2.233 6.141-4.466 8.374-1.675 1.675-3.908 3.35-6.142 3.908-1.117 0.558-2.233 1.117-3.908 1.675-2.792 1.117-5.025 3.35-6.7 6.142-0.558 1.117-1.117 2.233-1.674 3.35-1.117 1.675-1.675 2.792-2.792 4.466-0.558 1.117-1.675 2.233-2.233 3.35-0.558 1.117-1.675 1.675-1.675 2.792-1.117 2.233-1.675 4.467-2.792 6.699-0.558 1.117-0.558 2.792-1.116 3.909-1.117 2.233-1.117 4.467-1.117 7.258 0 0.558 0 1.117 0 2.233 0 2.792-0.558 6.141-0.558 8.933 0 2.792 0 5.583 0.558 8.375 0 1.117 0 2.792 0 3.908 0 2.233 0.558 5.025 0.558 7.258 0 2.233 0 5.025 1.117 7.258v0.558c0.558 2.233 0.558 4.467 1.116 6.7 0 0.558 0 1.117 0.559 1.675 1.117 3.35 1.675 6.141 2.791 9.491 0.558 2.233 1.675 4.467 2.234 6.7 0.558 2.233 2.792 4.467 3.349 7.258v0c1.675 3.35 3.35 6.7 5.584 10.05 0.558 1.117 1.675 2.233 2.233 3.35 1.117 1.675 1.675 3.35 2.791 4.466 0.558 1.117 1.675 2.233 2.234 2.792 0.558 1.117 1.117 2.233 2.233 3.35 1.117 1.117 2.233 2.792 3.35 3.908 1.675 2.792 3.908 5.025 6.141 6.7 1.117 1.117 2.233 1.675 3.35 2.791 0.558 0.558 1.117 0.558 1.117 1.117 0.558 0.558 1.117 1.117 2.233 1.675 4.467 2.233 7.816 5.583 11.725 8.933 1.675 1.675 3.35 3.35 5.583 4.466 2.233 1.675 3.908 3.35 6.7 3.908 0 0 0.558 0 0.558 0.559 1.117 1.117 2.792 1.675 3.908 2.233 2.233 1.117 5.025 2.233 7.258 3.35 0.558 0.558 1.675 0.558 2.233 1.117 1.675 0.558 3.35 1.117 5.025 1.674 1.675 0.558 2.792 1.117 4.467 1.117h0.558c1.117 0.558 1.675 0.558 2.792 0 0.558 0 1.117 0 1.116 0.558 0 0.558 0.558 0.558 1.117 0.559 0.558 0 1.117 0 2.233 0 0.558-0.558 0.558-1.117 1.117-2.234 0.558 0.558 1.117 0.558 1.116 0.559 0.558 1.117 1.675 1.117 2.792 1.116h0.558c1.117 0 1.675 0 2.233-0.558 0-0.558 1.117-0.558 1.675-0.558 1.675 0.558 3.35 0.558 5.025 1.116 1.117 0.558 2.792 0.558 3.35-0.558 0.558-0.558 1.117-1.117 2.233-0.558 1.117 0.558 1.675 0.558 2.792 0 0.558 0 1.117 0 1.117 0 1.675 0.558 2.792 0.558 4.466 1.116 2.233 0.558 2.233 0.558 3.908-1.116 0.558-0.558 1.675-0.558 2.233 0 0.558 1.117 0.558 1.675 0.559 2.791 0.558 0 0.558 0 1.116-0.558 0-1.117 0.558-1.117 1.675-1.675 0.558 0.558 0.558 0.558 1.117 0.558 1.117 1.117 1.675 1.117 2.233-0.558 0-0.558 0-1.117 0.559-1.116 0.558 0 1.117 0.558 1.116 0.558 0.558 1.117 1.675 1.675 2.233 2.791 1.117 1.117 2.792 1.117 3.35 0 0.558-0.558 1.117-0.558 1.675-0.558 0-0.558 0-1.117 0-1.675 1.675 1.117 1.117 1.117 0.559 1.117zM89.417 34.559c1.675 0.558 2.792 0.558 3.349-0.558-1.117 0.558-2.233-0.558-3.349 0.558z" fill="#374151" fill-rule="nonzero" stroke="none" stroke-width="1" stroke-linecap="butt" stroke-linejoin="miter" stroke-miterlimit="10" stroke-dasharray="" stroke-dashoffset="0" font-family="none" font-weight="none" font-size="none" text-anchor="none" style="mix-blend-mode: normal" data-fill-palette-color="tertiary"></path></g><g transform="matrix(1,0,0,1,64,128.81317319887677)"><svg viewBox="0 0 192 102.37365360224648" height="102.37365360224648" width="192"><g><svg viewBox="0 0 192 102.37365360224648" height="102.37365360224648" width="192"><g><svg viewBox="0 0 192 102.37365360224648" height="102.37365360224648" width="192"><g transform="matrix(1,0,0,1,0,61.57641666956918)"><svg viewBox="0 0 192 40.7972369326773" height="40.7972369326773" width="192"><g><svg viewBox="0 0 192 40.7972369326773" height="40.7972369326773" width="192"><g><svg viewBox="0 0 192 22.004080163206524" height="22.004080163206524" width="192"><g transform="matrix(1,0,0,1,0,0)"><svg width="192" viewBox="1.7000000476837158 -36.5 416.6199951171875 47.75" height="22.004080163206524" data-palette-color="#374151"><path d="M29.35 11.25L25.9 11.25Q20.2 11.25 15.7 9.3 11.2 7.35 8.08 4 4.95 0.65 3.33-3.55 1.7-7.75 1.7-12.3L1.7-12.3Q1.7-16.9 3.35-21.15 5-25.4 8.13-28.8 11.25-32.2 15.73-34.18 20.2-36.15 25.9-36.15L25.9-36.15Q30.4-36.15 34.7-34.6 39-33.05 42.43-30.13 45.85-27.2 47.88-23.03 49.9-18.85 49.9-13.55L49.9-13.55Q49.9-9.7 48.63-6.88 47.35-4.05 44.98-2.55 42.6-1.05 39.25-1.05L39.25-1.05Q37.35-1.05 35.68-1.73 34-2.4 32.7-3.6L32.7-3.6Q31.3-2.4 29.55-1.73 27.8-1.05 25.9-1.05L25.9-1.05Q22.7-1.05 20.03-2.63 17.35-4.2 15.75-6.83 14.15-9.45 14.15-12.6L14.15-12.6Q14.15-15.85 15.75-18.48 17.35-21.1 20.03-22.68 22.7-24.25 25.9-24.25L25.9-24.25Q29.15-24.25 31.83-22.68 34.5-21.1 36.1-18.48 37.7-15.85 37.7-12.6L37.7-12.6 37.7-10.1Q37.7-9.6 37.9-9.22 38.1-8.85 38.48-8.65 38.85-8.45 39.25-8.45L39.25-8.45Q40.1-8.45 40.65-9.13 41.2-9.8 41.45-10.85 41.7-11.9 41.7-13L41.7-13Q41.8-16.65 40.5-19.5 39.2-22.35 36.93-24.33 34.65-26.3 31.78-27.33 28.9-28.35 25.9-28.35L25.9-28.35Q22.15-28.35 19.18-27.05 16.2-25.75 14.15-23.53 12.1-21.3 11-18.48 9.9-15.65 9.9-12.6L9.9-12.6Q9.9-9.55 11-6.7 12.1-3.85 14.18-1.6 16.25 0.65 19.23 1.98 22.2 3.3 25.9 3.3L25.9 3.3 29.35 3.3 29.35 11.25ZM25.9-8.45L25.9-8.45Q27-8.45 27.88-9.05 28.75-9.65 29.25-10.6 29.75-11.55 29.75-12.6L29.75-12.6Q29.75-13.75 29.25-14.7 28.75-15.65 27.88-16.25 27-16.85 25.9-16.85L25.9-16.85Q24.8-16.85 23.95-16.25 23.1-15.65 22.6-14.7 22.1-13.75 22.1-12.6L22.1-12.6Q22.1-11.55 22.6-10.6 23.1-9.65 23.95-9.05 24.8-8.45 25.9-8.45ZM74.3 0L63.5 0 63.5-9.3Q60.45-10.2 58.27-12.1 56.1-14 54.92-16.82 53.75-19.65 53.75-23.2L53.75-23.2 53.75-35 64.15-35 64.15-22.8Q64.15-21.25 64.72-20.03 65.3-18.8 66.37-18.13 67.45-17.45 68.9-17.45L68.9-17.45Q70.4-17.45 71.47-18.13 72.55-18.8 73.15-20.03 73.75-21.25 73.75-22.8L73.75-22.8 73.75-35 84.15-35 84.15-23.2Q84.15-19.65 82.95-16.82 81.75-14 79.55-12.1 77.35-10.2 74.3-9.3L74.3-9.3 74.3 0ZM100 0.6L100 0.6Q96.09 0.6 92.87-1.1 89.65-2.8 87.72-5.88 85.8-8.95 85.8-12.95L85.8-12.95Q85.8-16.95 87.72-20 89.65-23.05 92.9-24.78 96.15-26.5 100.05-26.5L100.05-26.5Q103.95-26.5 107.15-24.78 110.34-23.05 112.25-20 114.15-16.95 114.15-12.95L114.15-12.95Q114.15-8.95 112.25-5.88 110.34-2.8 107.12-1.1 103.9 0.6 100 0.6ZM100-8L100-8Q101.34-8 102.4-8.65 103.45-9.3 104.02-10.43 104.59-11.55 104.59-13L104.59-13Q104.59-14.45 104.02-15.55 103.45-16.65 102.4-17.3 101.34-17.95 100-17.95L100-17.95Q98.65-17.95 97.59-17.3 96.55-16.65 95.95-15.55 95.34-14.45 95.34-13L95.34-13Q95.34-11.55 95.95-10.43 96.55-9.3 97.59-8.65 98.65-8 100-8ZM131.39 0.65L131.39 0.65Q127.34 0.65 124.29-0.88 121.24-2.4 119.54-5.03 117.84-7.65 117.84-11L117.84-11 117.84-25.9 127.39-25.9 127.39-11.6Q127.39-10.7 127.84-9.85 128.29-9 129.17-8.47 130.04-7.95 131.19-7.95L131.19-7.95Q132.34-7.95 133.17-8.47 133.99-9 134.44-9.85 134.89-10.7 134.89-11.6L134.89-11.6 134.89-25.9 144.49-25.9 144.49-11Q144.49-7.65 142.92-5.03 141.34-2.4 138.39-0.88 135.44 0.65 131.39 0.65ZM158.24 0L148.64 0 148.64-17.85Q148.64-21.55 150.79-23.7 152.94-25.85 156.79-25.85L156.79-25.85 165.09-25.85 165.09-18.6 160.14-18.6Q159.29-18.6 158.77-18.07 158.24-17.55 158.24-16.7L158.24-16.7 158.24 0ZM181.74 0.65L181.74 0.65Q185.99 0.65 189.24-1.1 192.49-2.85 194.29-6 196.09-9.15 196.09-13.4L196.09-13.4 196.09-36.5 186.49-36.5 186.49-23.85 186.19-23.85Q185.44-24.75 184.44-25.35 183.44-25.95 182.24-26.23 181.04-26.5 179.69-26.5L179.69-26.5Q176.24-26.5 173.44-24.85 170.64-23.2 169.01-20.25 167.39-17.3 167.39-13.3L167.39-13.3Q167.39-10.2 168.41-7.65 169.44-5.1 171.34-3.23 173.24-1.35 175.86-0.35 178.49 0.65 181.74 0.65ZM181.74-7.75L181.74-7.75Q180.39-7.75 179.36-8.4 178.34-9.05 177.76-10.23 177.19-11.4 177.19-12.9L177.19-12.9Q177.19-14.35 177.76-15.45 178.34-16.55 179.36-17.2 180.39-17.85 181.74-17.85L181.74-17.85Q183.04-17.85 184.09-17.2 185.14-16.55 185.71-15.45 186.29-14.35 186.29-12.9L186.29-12.9Q186.29-11.4 185.71-10.23 185.14-9.05 184.09-8.4 183.04-7.75 181.74-7.75ZM223.19 0L214.79 0Q210.44 0 207.04-1.5 203.64-3 201.66-5.88 199.69-8.75 199.69-12.9L199.69-12.9Q199.69-17.45 201.64-20.45 203.59-23.45 206.71-24.98 209.84-26.5 213.29-26.5L213.29-26.5Q216.84-26.5 219.66-25.03 222.49-23.55 224.16-20.8 225.84-18.05 225.84-14.2L225.84-14.2Q225.84-13.25 225.74-12.03 225.64-10.8 225.44-9.95L225.44-9.95 209.54-9.95Q209.74-9.1 210.29-8.53 210.84-7.95 211.79-7.7 212.74-7.45 213.94-7.45L213.94-7.45 223.19-7.45 223.19 0ZM209.09-15.25L209.09-15.25 216.99-15.25Q216.99-15.85 216.84-16.4 216.69-16.95 216.36-17.43 216.04-17.9 215.59-18.28 215.14-18.65 214.51-18.85 213.89-19.05 213.14-19.05L213.14-19.05Q212.19-19.05 211.46-18.75 210.74-18.45 210.24-17.95 209.74-17.45 209.46-16.75 209.19-16.05 209.09-15.25ZM241.88 0.65L241.88 0.65Q239.43 0.65 237.43-0.55 235.43-1.75 234.63-4L234.63-4 227.38-25.9 237.93-25.9 241.68-8.95Q241.73-8.75 241.81-8.63 241.88-8.5 241.98-8.5L241.98-8.5Q242.08-8.5 242.16-8.63 242.23-8.75 242.28-8.95L242.28-8.95 246.03-25.9 256.38-25.9 249.13-4Q248.33-1.75 246.36-0.55 244.38 0.65 241.88 0.65ZM268.58 0L259.03 0 259.03-36.5 268.58-36.5 268.58 0ZM286.48 0.6L286.48 0.6Q282.58 0.6 279.35-1.1 276.13-2.8 274.2-5.88 272.28-8.95 272.28-12.95L272.28-12.95Q272.28-16.95 274.2-20 276.13-23.05 279.38-24.78 282.63-26.5 286.53-26.5L286.53-26.5Q290.43-26.5 293.63-24.78 296.83-23.05 298.73-20 300.63-16.95 300.63-12.95L300.63-12.95Q300.63-8.95 298.73-5.88 296.83-2.8 293.6-1.1 290.38 0.6 286.48 0.6ZM286.48-8L286.48-8Q287.83-8 288.88-8.65 289.93-9.3 290.5-10.43 291.08-11.55 291.08-13L291.08-13Q291.08-14.45 290.5-15.55 289.93-16.65 288.88-17.3 287.83-17.95 286.48-17.95L286.48-17.95Q285.13-17.95 284.08-17.3 283.03-16.65 282.43-15.55 281.83-14.45 281.83-13L281.83-13Q281.83-11.55 282.43-10.43 283.03-9.3 284.08-8.65 285.13-8 286.48-8ZM323.83 10.15L308.33 10.15 308.33 1.95 320.58 1.95Q321.48 1.95 322.03 1.48 322.58 1 322.58 0.2L322.58 0.2 322.58-4.3 322.28-4.3Q321.63-3.45 320.65-2.68 319.68-1.9 318.3-1.45 316.93-1 315.03-1L315.03-1Q311.63-1 309.08-2.63 306.53-4.25 305.13-7 303.73-9.75 303.73-13.05L303.73-13.05Q303.73-16.6 305.33-19.68 306.93-22.75 310.08-24.63 313.23-26.5 317.78-26.5L317.78-26.5Q322.08-26.5 325.3-24.73 328.53-22.95 330.35-19.8 332.18-16.65 332.18-12.5L332.18-12.5 332.18 2.15Q332.18 5.85 329.98 8 327.78 10.15 323.83 10.15L323.83 10.15ZM317.98-8.7L317.98-8.7Q319.23-8.7 320.23-9.3 321.23-9.9 321.8-10.93 322.38-11.95 322.38-13.15L322.38-13.15Q322.38-14.45 321.8-15.5 321.23-16.55 320.23-17.18 319.23-17.8 317.98-17.8L317.98-17.8Q316.73-17.8 315.7-17.2 314.68-16.6 314.1-15.55 313.53-14.5 313.53-13.2L313.53-13.2Q313.53-11.95 314.1-10.93 314.68-9.9 315.7-9.3 316.73-8.7 317.98-8.7ZM359.27 0L350.87 0Q346.52 0 343.12-1.5 339.72-3 337.75-5.88 335.77-8.75 335.77-12.9L335.77-12.9Q335.77-17.45 337.72-20.45 339.67-23.45 342.8-24.98 345.92-26.5 349.37-26.5L349.37-26.5Q352.92-26.5 355.75-25.03 358.57-23.55 360.25-20.8 361.92-18.05 361.92-14.2L361.92-14.2Q361.92-13.25 361.82-12.03 361.72-10.8 361.52-9.95L361.52-9.95 345.62-9.95Q345.82-9.1 346.37-8.53 346.92-7.95 347.87-7.7 348.82-7.45 350.02-7.45L350.02-7.45 359.27-7.45 359.27 0ZM345.17-15.25L345.17-15.25 353.07-15.25Q353.07-15.85 352.92-16.4 352.77-16.95 352.45-17.43 352.12-17.9 351.67-18.28 351.22-18.65 350.6-18.85 349.97-19.05 349.22-19.05L349.22-19.05Q348.27-19.05 347.55-18.75 346.82-18.45 346.32-17.95 345.82-17.45 345.55-16.75 345.27-16.05 345.17-15.25ZM379.72 0L365.62 0 365.62-6.8 377.72-6.8Q378.12-6.8 378.37-6.98 378.62-7.15 378.77-7.43 378.92-7.7 378.92-8L378.92-8Q378.92-8.3 378.77-8.58 378.62-8.85 378.37-9 378.12-9.15 377.72-9.15L377.72-9.15 373.82-9.15Q371.27-9.15 369.17-10.03 367.07-10.9 365.85-12.78 364.62-14.65 364.62-17.6L364.62-17.6Q364.62-19.9 365.75-21.78 366.87-23.65 368.82-24.78 370.77-25.9 373.12-25.9L373.12-25.9 386.27-25.9 386.27-19.1 375.37-19.1Q374.87-19.1 374.55-18.75 374.22-18.4 374.22-17.95L374.22-17.95Q374.22-17.5 374.55-17.15 374.87-16.8 375.37-16.8L375.37-16.8 378.97-16.8Q381.87-16.8 384-15.93 386.12-15.05 387.27-13.2 388.42-11.35 388.42-8.4L388.42-8.4Q388.42-6.1 387.25-4.2 386.07-2.3 384.12-1.15 382.17 0 379.72 0L379.72 0ZM401.22 0L391.67 0 391.67-36.5 401.22-36.5 401.22-24.45Q402.62-25.45 404.32-25.98 406.02-26.5 407.72-26.5L407.72-26.5Q410.92-26.5 413.29-25.1 415.67-23.7 416.99-21.1 418.32-18.5 418.32-14.9L418.32-14.9 418.32 0 408.72 0 408.72-14.05Q408.72-15.3 408.19-16.15 407.67-17 406.82-17.48 405.97-17.95 405.02-17.95L405.02-17.95Q404.02-17.95 403.14-17.5 402.27-17.05 401.74-16.18 401.22-15.3 401.22-14.1L401.22-14.1 401.22 0Z" opacity="1" transform="matrix(1,0,0,1,0,0)" fill="#ffffff" class="undefined-text-0" data-fill-palette-color="primary" id="text-0"></path></svg></g></svg></g><g transform="matrix(1,0,0,1,0,27.198715391815668)"><svg viewBox="0 0 192 13.598521540861631" height="13.598521540861631" width="192"><g transform="matrix(1,0,0,1,0,0)"><svg width="192" viewBox="5 -28.75 405.92999267578125 28.75" height="13.598521540861631" data-palette-color="#374151"><path d="M5 0L5-28.75 21-28.75 21-23.1 11.3-23.1 11.3-5.85 21-5.85 21 0 5 0ZM39.45-3.4L39.45-25.3 33.8-28.75 23.45-28.75 23.45-23.1 33.15-23.1 33.15-5.85 23.45-5.85 23.45 0 33.8 0 39.45-3.4ZM57.15-28.75L57.15-28.75 73.15-28.75 73.15-22.85 63.45-22.85 63.45-17.2 73.15-17.2 73.15-11.5 63.45-11.5 63.45-5.65 72.95-5.65 72.95 0 57.15 0 57.15-28.75ZM75.6-5.65L75.6-5.65 75.6 0 91.6 0 91.6-5.65 75.6-5.65ZM91.6-22.85L91.6-22.85 91.6-28.75 75.4-28.75 75.4-22.85 91.6-22.85ZM83.5-11.5L83.5-11.5 83.5-17.2 75.4-17.2 75.4-11.5 83.5-11.5ZM108.01-28.75L108.01-28.75 118.31-11.5 118.31 0 102.31-26.9 108.01-28.75ZM131.11-28.75L131.11-28.75 120.76-11.5 120.76 0 136.76-26.9 131.11-28.75ZM174.66 0L174.66-28.75 190.66-28.75 190.66-23.1 180.96-23.1 180.96-17.2 190.66-17.2 190.66-11.5 180.96-11.5 180.96-5.85 190.66-5.85 190.66 0 174.66 0ZM203.46 0L209.11-3.4 209.11-12.15 204.41-14.35 209.11-16.6 209.11-25.3 203.46-28.75 193.11-28.75 193.11-23.1 202.81-23.1 202.81-17.2 193.11-17.2 193.11-11.5 202.81-11.5 202.81-5.85 193.11-5.85 193.11 0 203.46 0ZM226.82-28.75L226.82-28.75 233.12-28.75 233.12-5.85 242.62-5.85 242.62 0 226.82 0 226.82-28.75ZM245.27-5.85L245.27-5.85 245.27 0 261.27 0 261.27-5.85 245.27-5.85ZM274.47-25.3L274.47-25.3 280.32-28.75 290.67-28.75 290.67-23.1 280.77-23.1 280.77-5.85 290.47-5.85 290.47 0 280.32 0 274.47-3.4 274.47-25.3ZM308.92-25.3L308.92-25.3 303.27-28.75 292.92-28.75 292.92-23.1 302.62-23.1 302.62-5.85 292.92-5.85 292.92 0 303.27 0 308.92-3.4 308.92-25.3ZM325.62-3.4L325.62-25.3 331.47-28.75 341.82-28.75 341.82-22.85 332.12-22.85 332.12-5.65 341.62-5.65 341.62 0 331.47 0 325.62-3.4ZM353.77-19.45L360.27-19.45 360.27-25.3 354.42-28.75 344.07-28.75 344.07-22.85 353.77-22.85 353.77-19.45ZM360.27-3.4L360.27-17.2 344.07-17.2 344.07-11.5 353.77-11.5 353.77-5.65 344.27-5.65 344.27 0 354.42 0 360.27-3.4ZM376.48-14.75L376.48-25.3 382.18-28.75 392.48-28.75 392.48-22.85 382.58-22.85 382.58-17.2 392.48-17.2 392.48-11.35 382.18-11.35 376.48-14.75ZM410.93-3.4L410.93-13.75 405.03-17.2 394.73-17.2 394.73-11.35 404.63-11.35 404.63-5.65 394.93-5.65 394.93 0 405.03 0 410.93-3.4ZM376.48-9.1L382.78-9.1 382.78-5.65 392.48-5.65 392.48 0 382.33 0 376.48-3.4 376.48-9.1ZM404.63-19.45L410.93-19.45 410.93-25.3 405.03-28.75 394.73-28.75 394.73-22.85 404.63-22.85 404.63-19.45Z" opacity="1" transform="matrix(1,0,0,1,0,0)" fill="#ffffff" class="undefined-text-1" data-fill-palette-color="secondary" id="text-1"></path></svg></g></svg></g></svg></g></svg></g><g transform="matrix(1,0,0,1,76.78264218338,0)"><svg viewBox="0 0 38.434715633239996 56.38178144096003" height="56.38178144096003" width="38.434715633239996"><g><svg xmlns="http://www.w3.org/2000/svg" xmlns:xlink="http://www.w3.org/1999/xlink" version="1.1" x="0" y="0" viewBox="22.036081314086914 9.858999252319336 55.35497283935547 81.20294189453125" enable-background="new 0 0 100 100" xml:space="preserve" height="56.38178144096003" width="38.434715633239996" class="icon-icon-0" data-fill-palette-color="accent" id="icon-0"><path fill="none" d="M26.499 18.3c1.587 2.066 6.308 4.479 19.77 4.242 0.241-0.004 23.877-0.317 27.11-4.805 0.309-0.428 0.389-0.871 0.251-1.351-4.06-5.424-19.675-5.711-22.888-5.711-0.627 0-0.985 0.008-0.988 0.008-20.928 0.628-23.706 4.89-23.915 5.282l-0.053 0.429C25.785 16.818 25.898 17.517 26.499 18.3zM30.843 19.194c0.045-0.765 0.934-1.137 2.714-1.137 0.218 0 0.443 0.006 0.669 0.02 1.233 0.073 3.293 0.366 3.226 1.51-0.046 0.763-0.932 1.136-2.711 1.136-0.219 0-0.444-0.007-0.671-0.019C32.836 20.631 30.776 20.336 30.843 19.194z"></path><path fill="none" d="M46.28 23.356c-0.608 0.012-1.201 0.016-1.775 0.016-12.509 0-17.072-2.479-18.681-4.613-0.107-0.142-0.197-0.282-0.281-0.42l-0.438 3.494-0.003 0.005c-0.069 0.594-0.151 3.677 5.243 5.694 1.633 0.61 7.817 2.212 16.682 2.283 6.167 0.048 13.713-0.634 17.948-1.622 2.269-0.533 8.353-2.286 9.836-4.078l-0.64-6.103c-0.041 0.065-0.082 0.136-0.13 0.2C70.57 23.032 47.271 23.345 46.28 23.356z"></path><path fill="none" d="M47.65 30.634c-0.212 0-0.422-0.002-0.63-0.003-8.034-0.062-14.545-1.431-16.961-2.333-4.429-1.657-5.51-4.064-5.735-5.507-1.15 1.545-1.632 2.97-1.429 4.243 0.268 1.68 1.653 2.515 1.666 2.522 7.086 4.373 21.635 4.713 25.924 4.713 0.849 0 1.335-0.014 1.339-0.014 20.812-1.094 23.363-4.229 23.387-4.261l0.035-0.056 0.042-0.027c0.844-0.702 1.276-1.479 1.282-2.314 0.01-1.207-0.846-2.274-1.312-2.764-2.247 2.286-9.764 4.073-10.099 4.153C61.014 29.955 53.749 30.634 47.65 30.634z"></path><path d="M25.896 30.997l0.032 0.216c7.667 3.575 20.545 3.872 24.557 3.872 0.867 0 1.361-0.015 1.373-0.015 14.1-0.74 19.971-2.376 22.393-3.499l0.068-0.574C74.318 30.997 50.107 39.34 25.896 30.997z" fill="#ffffff" data-fill-palette-color="accent"></path><path d="M25.103 21.838c0.005-0.051 0.012-0.087 0.015-0.099l-0.4-0.08 0.399 0.084-0.799-0.169c-0.012 0.057-0.101 0.526 0.007 1.217 0.211-0.283 0.442-0.57 0.699-0.864L25.103 21.838z" fill="#ffffff" data-fill-palette-color="accent"></path><path d="M74.968 24.548c0.005 0.005 0.124 0.107 0.292 0.286 0.116-0.117 0.219-0.237 0.305-0.358L74.9 24.001c-0.027 0.038-0.06 0.077-0.092 0.114l0.035 0.328L74.968 24.548z" fill="#ffffff" data-fill-palette-color="accent"></path><g fill="#374151" data-fill-palette-color="accent"><path d="M50.485 35.085c-4.012 0-16.891-0.297-24.557-3.872l8.31 54.732c0 0 3.52 5.623 19.17 5.08 0 0 12.021-0.727 14.562-6.166l6.279-53.289c-2.421 1.123-8.292 2.759-22.393 3.499C51.846 35.07 51.352 35.085 50.485 35.085z" fill="#ffffff" data-fill-palette-color="accent"></path><path d="M75.623 24.042l-0.754-7.194-0.033-0.066c-3.236-6.424-19.26-6.923-24.094-6.923-0.643 0-1.008 0.01-1.011 0.01-22.693 0.679-24.606 5.646-24.677 5.856l-0.001 0.012 0.779 0.236-0.39-0.118 0.391 0.116v0.002c-0.007 0.025-0.046 0.177-0.047 0.422l0.053-0.429c0.209-0.393 2.987-4.654 23.915-5.282 0.003 0 0.361-0.008 0.988-0.008 3.213 0 18.828 0.287 22.888 5.711-0.005-0.021-0.009-0.041-0.015-0.06l0.775-0.249c0.219 0.681 0.145 1.33-0.22 1.935l0.64 6.103c0.031-0.037 0.063-0.076 0.092-0.114l0.664 0.475c-0.086 0.121-0.189 0.241-0.305 0.358 0.463 0.489 1.319 1.557 1.311 2.764-0.006 0.835-0.438 1.612-1.282 2.314l-0.042 0.027-0.035 0.056c-0.023 0.032-2.572 3.167-23.387 4.261-0.003 0-0.49 0.014-1.339 0.014-4.29 0-18.838-0.34-25.924-4.713-0.013-0.008-1.398-0.843-1.666-2.522-0.203-1.273 0.279-2.698 1.429-4.243-0.108-0.69-0.019-1.16-0.007-1.217l0.799 0.169-0.399-0.084 0.4 0.08c-0.002 0.012-0.009 0.048-0.015 0.099l0.003-0.005 0.438-3.494c-0.47-0.784-0.574-1.488-0.569-1.968l-0.646 5.113c-1.762 2.037-2.515 3.945-2.238 5.679 0.327 2.054 1.987 3.055 2.05 3.094 0.555 0.342 1.154 0.659 1.789 0.956l-0.032-0.216c24.211 8.343 48.421 0 48.421 0l-0.067 0.574c1.065-0.494 1.465-0.891 1.601-1.064 1.012-0.854 1.528-1.83 1.537-2.902C77.4 25.863 76.05 24.444 75.623 24.042z" fill="#ffffff" data-fill-palette-color="accent"></path><path d="M34.069 20.704c0.227 0.012 0.452 0.019 0.671 0.019 1.779 0 2.666-0.373 2.711-1.136 0.068-1.144-1.992-1.437-3.226-1.51-0.226-0.014-0.451-0.02-0.669-0.02-1.78 0-2.668 0.372-2.714 1.137C30.776 20.336 32.836 20.631 34.069 20.704z" fill="#ffffff" data-fill-palette-color="accent"></path><path d="M64.975 28.193c-4.234 0.988-11.781 1.67-17.948 1.622-8.865-0.071-15.048-1.673-16.682-2.283-5.394-2.018-5.312-5.101-5.243-5.694l-0.079 0.089c-0.257 0.294-0.488 0.581-0.699 0.864 0.225 1.442 1.306 3.85 5.735 5.507 2.417 0.902 8.928 2.271 16.961 2.333 0.208 0.001 0.418 0.003 0.63 0.003 6.098 0 13.364-0.679 17.511-1.646 0.334-0.08 7.851-1.867 10.099-4.153-0.169-0.179-0.287-0.281-0.292-0.286l-0.122-0.104-0.035-0.328C73.327 25.907 67.243 27.66 64.975 28.193z" fill="#ffffff" data-fill-palette-color="accent"></path><path d="M44.505 23.372c0.574 0 1.167-0.004 1.775-0.016 0.991-0.012 24.291-0.324 27.761-5.144 0.048-0.064 0.089-0.135 0.13-0.2l-0.097-0.931c-0.127-0.241-0.276-0.472-0.444-0.695 0.138 0.479 0.058 0.923-0.251 1.351-3.232 4.487-26.87 4.801-27.11 4.805-13.462 0.237-18.182-2.176-19.77-4.242-0.601-0.783-0.714-1.481-0.713-1.905l-0.243 1.944c0.083 0.138 0.173 0.278 0.281 0.42C27.433 20.894 31.996 23.372 44.505 23.372z" fill="#ffffff" data-fill-palette-color="accent"></path></g><path d="M25.052 15.736c-0.007 0.021-0.074 0.26-0.078 0.635l0.08-0.635H25.052z" fill="#ffffff" data-fill-palette-color="accent"></path><polygon points="25.442,15.854 25.833,15.973 25.833,15.971 " fill="#ffffff" data-fill-palette-color="accent"></polygon><path d="M25.833 15.973L25.833 15.973 25.833 15.973z" fill="#ffffff" data-fill-palette-color="accent"></path><path d="M25.543 18.339l0.243-1.944c0.001-0.245 0.04-0.396 0.046-0.422l-0.779-0.236-0.08 0.635C24.969 16.851 25.073 17.555 25.543 18.339z" fill="#ffffff" data-fill-palette-color="accent"></path><path d="M74.171 18.013c0.363-0.604 0.438-1.254 0.22-1.935l-0.775 0.249c0.005 0.019 0.009 0.039 0.015 0.06 0.168 0.224 0.317 0.454 0.444 0.695L74.171 18.013z" fill="#ffffff" data-fill-palette-color="accent"></path></svg></g></svg></g><g></g></svg></g></svg></g></svg></g></svg></g><defs></defs></svg><rect width="320" height="360" fill="none" stroke="none" visibility="hidden"></rect></g></svg></g></svg>